<?xml version="1.0" encoding="UTF-8" standalone="no"?>
<!DOCTYPE svg PUBLIC "-//W3C//DTD SVG 1.1//EN"
 "http://www.w3.org/Graphics/SVG/1.1/DTD/svg11.dtd">
<!-- Generated by graphviz version 11.0.0 (20240428.1522)
 -->
<!-- Title: snakemake_dag Pages: 1 -->
<svg width="1218pt" height="1124pt"
 viewBox="0.00 0.00 1218.00 1124.00" xmlns="http://www.w3.org/2000/svg" xmlns:xlink="http://www.w3.org/1999/xlink">
<g id="graph0" class="graph" transform="scale(1 1) rotate(0) translate(4 1120)">
<title>snakemake_dag</title>
<polygon fill="white" stroke="none" points="-4,4 -4,-1120 1214,-1120 1214,4 -4,4"/>
<!-- 0 -->
<g id="node1" class="node">
<title>0</title>
<path fill="none" stroke="#d8ac56" stroke-width="2" stroke-dasharray="5,2" d="M554,-36C554,-36 524,-36 524,-36 518,-36 512,-30 512,-24 512,-24 512,-12 512,-12 512,-6 518,0 524,0 524,0 554,0 554,0 560,0 566,-6 566,-12 566,-12 566,-24 566,-24 566,-30 560,-36 554,-36"/>
<text text-anchor="middle" x="539" y="-14.12" font-family="sans" font-size="10.00">all</text>
</g>
<!-- 1 -->
<g id="node2" class="node">
<title>1</title>
<path fill="none" stroke="#b6d856" stroke-width="2" stroke-dasharray="5,2" d="M231,-108C231,-108 89,-108 89,-108 83,-108 77,-102 77,-96 77,-96 77,-84 77,-84 77,-78 83,-72 89,-72 89,-72 231,-72 231,-72 237,-72 243,-78 243,-84 243,-84 243,-96 243,-96 243,-102 237,-108 231,-108"/>
<text text-anchor="middle" x="160" y="-86.12" font-family="sans" font-size="10.00">filter_fasta_and_prepare_metadata</text>
</g>
<!-- 1&#45;&gt;0 -->
<g id="edge1" class="edge">
<title>1&#45;&gt;0</title>
<path fill="none" stroke="grey" stroke-width="2" d="M243.64,-73.55C322.68,-58.95 437.89,-37.67 498.41,-26.5"/>
<polygon fill="grey" stroke="grey" stroke-width="2" points="498.99,-29.95 508.19,-24.69 497.72,-23.07 498.99,-29.95"/>
</g>
<!-- 2 -->
<g id="node3" class="node">
<title>2</title>
<path fill="none" stroke="#d85656" stroke-width="2" stroke-dasharray="5,2" d="M110.38,-684C110.38,-684 39.62,-684 39.62,-684 33.62,-684 27.62,-678 27.62,-672 27.62,-672 27.62,-660 27.62,-660 27.62,-654 33.62,-648 39.62,-648 39.62,-648 110.38,-648 110.38,-648 116.38,-648 122.38,-654 122.38,-660 122.38,-660 122.38,-672 122.38,-672 122.38,-678 116.38,-684 110.38,-684"/>
<text text-anchor="middle" x="75" y="-662.12" font-family="sans" font-size="10.00">subsample_denv1</text>
</g>
<!-- 2&#45;&gt;1 -->
<g id="edge5" class="edge">
<title>2&#45;&gt;1</title>
<path fill="none" stroke="grey" stroke-width="2" d="M58.36,-647.31C36.26,-621.89 0,-572.63 0,-523 0,-523 0,-523 0,-233 0,-176.63 56.25,-137.18 102.04,-114.41"/>
<polygon fill="grey" stroke="grey" stroke-width="2" points="103.47,-117.61 110.99,-110.15 100.46,-111.29 103.47,-117.61"/>
</g>
<!-- 12 -->
<g id="node13" class="node">
<title>12</title>
<path fill="none" stroke="#d89556" stroke-width="2" stroke-dasharray="5,2" d="M152,-468C152,-468 122,-468 122,-468 116,-468 110,-462 110,-456 110,-456 110,-444 110,-444 110,-438 116,-432 122,-432 122,-432 152,-432 152,-432 158,-432 164,-438 164,-444 164,-444 164,-456 164,-456 164,-462 158,-468 152,-468"/>
<text text-anchor="middle" x="137" y="-446.12" font-family="sans" font-size="10.00">treetime</text>
</g>
<!-- 2&#45;&gt;12 -->
<g id="edge21" class="edge">
<title>2&#45;&gt;12</title>
<path fill="none" stroke="grey" stroke-width="2" d="M74.15,-647.29C73.34,-616.77 74.53,-552.84 95,-504 98.74,-495.07 104.44,-486.39 110.43,-478.73"/>
<polygon fill="grey" stroke="grey" stroke-width="2" points="112.93,-481.2 116.69,-471.29 107.57,-476.69 112.93,-481.2"/>
</g>
<!-- 14 -->
<g id="node15" class="node">
<title>14</title>
<path fill="none" stroke="#d87d56" stroke-width="2" stroke-dasharray="5,2" d="M237.88,-612C237.88,-612 158.12,-612 158.12,-612 152.12,-612 146.12,-606 146.12,-600 146.12,-600 146.12,-588 146.12,-588 146.12,-582 152.12,-576 158.12,-576 158.12,-576 237.88,-576 237.88,-576 243.88,-576 249.88,-582 249.88,-588 249.88,-588 249.88,-600 249.88,-600 249.88,-606 243.88,-612 237.88,-612"/>
<text text-anchor="middle" x="198" y="-595.75" font-family="sans" font-size="10.00">reformatting</text>
<text text-anchor="middle" x="198" y="-584.5" font-family="sans" font-size="10.00">serotype: Dengue_1</text>
</g>
<!-- 2&#45;&gt;14 -->
<g id="edge25" class="edge">
<title>2&#45;&gt;14</title>
<path fill="none" stroke="grey" stroke-width="2" d="M106.36,-647.15C121.25,-638.68 139.27,-628.42 155.38,-619.25"/>
<polygon fill="grey" stroke="grey" stroke-width="2" points="157.11,-622.3 164.07,-614.31 153.65,-616.21 157.11,-622.3"/>
</g>
<!-- 17 -->
<g id="node18" class="node">
<title>17</title>
<path fill="none" stroke="#d8bc56" stroke-width="2" stroke-dasharray="5,2" d="M76.38,-396C76.38,-396 41.62,-396 41.62,-396 35.62,-396 29.62,-390 29.62,-384 29.62,-384 29.62,-372 29.62,-372 29.62,-366 35.62,-360 41.62,-360 41.62,-360 76.38,-360 76.38,-360 82.38,-360 88.38,-366 88.38,-372 88.38,-372 88.38,-384 88.38,-384 88.38,-390 82.38,-396 76.38,-396"/>
<text text-anchor="middle" x="59" y="-374.12" font-family="sans" font-size="10.00">mutations</text>
</g>
<!-- 2&#45;&gt;17 -->
<g id="edge30" class="edge">
<title>2&#45;&gt;17</title>
<path fill="none" stroke="grey" stroke-width="2" d="M73.56,-647.34C72.75,-637.04 71.75,-623.79 71,-612 66.4,-539.6 62.36,-454.45 60.35,-409.83"/>
<polygon fill="grey" stroke="grey" stroke-width="2" points="63.85,-409.7 59.91,-399.86 56.86,-410.01 63.85,-409.7"/>
</g>
<!-- 3 -->
<g id="node4" class="node">
<title>3</title>
<path fill="none" stroke="#56d873" stroke-width="2" stroke-dasharray="5,2" d="M118.5,-756C118.5,-756 27.5,-756 27.5,-756 21.5,-756 15.5,-750 15.5,-744 15.5,-744 15.5,-732 15.5,-732 15.5,-726 21.5,-720 27.5,-720 27.5,-720 118.5,-720 118.5,-720 124.5,-720 130.5,-726 130.5,-732 130.5,-732 130.5,-744 130.5,-744 130.5,-750 124.5,-756 118.5,-756"/>
<text text-anchor="middle" x="73" y="-734.12" font-family="sans" font-size="10.00">split_genome_and_QC</text>
</g>
<!-- 3&#45;&gt;2 -->
<g id="edge7" class="edge">
<title>3&#45;&gt;2</title>
<path fill="none" stroke="grey" stroke-width="2" d="M73.5,-719.34C73.69,-712.75 73.91,-705.08 74.12,-697.67"/>
<polygon fill="grey" stroke="grey" stroke-width="2" points="77.61,-698.02 74.4,-687.93 70.62,-697.82 77.61,-698.02"/>
</g>
<!-- 4 -->
<g id="node5" class="node">
<title>4</title>
<path fill="none" stroke="#9fd856" stroke-width="2" stroke-dasharray="5,2" d="M109.62,-828C109.62,-828 28.38,-828 28.38,-828 22.37,-828 16.38,-822 16.38,-816 16.38,-816 16.38,-804 16.38,-804 16.38,-798 22.38,-792 28.38,-792 28.38,-792 109.62,-792 109.62,-792 115.62,-792 121.62,-798 121.62,-804 121.62,-804 121.62,-816 121.62,-816 121.62,-822 115.62,-828 109.62,-828"/>
<text text-anchor="middle" x="69" y="-806.12" font-family="sans" font-size="10.00">sequence_alignment</text>
</g>
<!-- 4&#45;&gt;3 -->
<g id="edge9" class="edge">
<title>4&#45;&gt;3</title>
<path fill="none" stroke="grey" stroke-width="2" d="M70.01,-791.34C70.39,-784.75 70.82,-777.08 71.25,-769.67"/>
<polygon fill="grey" stroke="grey" stroke-width="2" points="74.73,-770.11 71.8,-759.92 67.74,-769.71 74.73,-770.11"/>
</g>
<!-- 5 -->
<g id="node6" class="node">
<title>5</title>
<path fill="none" stroke="#d8d356" stroke-width="2" stroke-dasharray="5,2" d="M248.62,-900C248.62,-900 161.38,-900 161.38,-900 155.38,-900 149.38,-894 149.38,-888 149.38,-888 149.38,-876 149.38,-876 149.38,-870 155.38,-864 161.38,-864 161.38,-864 248.62,-864 248.62,-864 254.62,-864 260.62,-870 260.62,-876 260.62,-876 260.62,-888 260.62,-888 260.62,-894 254.62,-900 248.62,-900"/>
<text text-anchor="middle" x="205" y="-883.75" font-family="sans" font-size="10.00">process_dengue_data</text>
<text text-anchor="middle" x="205" y="-872.5" font-family="sans" font-size="10.00">serotype: Dengue_1</text>
</g>
<!-- 5&#45;&gt;4 -->
<g id="edge10" class="edge">
<title>5&#45;&gt;4</title>
<path fill="none" stroke="grey" stroke-width="2" d="M170.33,-863.15C153.54,-854.52 133.16,-844.02 115.09,-834.72"/>
<polygon fill="grey" stroke="grey" stroke-width="2" points="116.79,-831.66 106.3,-830.2 113.59,-837.89 116.79,-831.66"/>
</g>
<!-- 9 -->
<g id="node10" class="node">
<title>9</title>
<path fill="none" stroke="#56d863" stroke-width="2" stroke-dasharray="5,2" d="M258,-828C258,-828 152,-828 152,-828 146,-828 140,-822 140,-816 140,-816 140,-804 140,-804 140,-798 146,-792 152,-792 152,-792 258,-792 258,-792 264,-792 270,-798 270,-804 270,-804 270,-816 270,-816 270,-822 264,-828 258,-828"/>
<text text-anchor="middle" x="205" y="-806.12" font-family="sans" font-size="10.00">add_genotype_information</text>
</g>
<!-- 5&#45;&gt;9 -->
<g id="edge14" class="edge">
<title>5&#45;&gt;9</title>
<path fill="none" stroke="grey" stroke-width="2" d="M205,-863.34C205,-856.75 205,-849.08 205,-841.67"/>
<polygon fill="grey" stroke="grey" stroke-width="2" points="208.5,-841.93 205,-831.93 201.5,-841.93 208.5,-841.93"/>
</g>
<!-- 6 -->
<g id="node7" class="node">
<title>6</title>
<path fill="none" stroke="#566bd8" stroke-width="2" stroke-dasharray="5,2" d="M580.75,-972C580.75,-972 509.25,-972 509.25,-972 503.25,-972 497.25,-966 497.25,-960 497.25,-960 497.25,-948 497.25,-948 497.25,-942 503.25,-936 509.25,-936 509.25,-936 580.75,-936 580.75,-936 586.75,-936 592.75,-942 592.75,-948 592.75,-948 592.75,-960 592.75,-960 592.75,-966 586.75,-972 580.75,-972"/>
<text text-anchor="middle" x="545" y="-950.12" font-family="sans" font-size="10.00">filter_dengue_data</text>
</g>
<!-- 6&#45;&gt;5 -->
<g id="edge11" class="edge">
<title>6&#45;&gt;5</title>
<path fill="none" stroke="grey" stroke-width="2" d="M496.29,-942.97C437.98,-930.97 339.96,-910.79 273.91,-897.19"/>
<polygon fill="grey" stroke="grey" stroke-width="2" points="275.02,-893.84 264.52,-895.25 273.61,-900.7 275.02,-893.84"/>
</g>
<!-- 22 -->
<g id="node23" class="node">
<title>22</title>
<path fill="none" stroke="#d8d356" stroke-width="2" stroke-dasharray="5,2" d="M520.62,-900C520.62,-900 433.38,-900 433.38,-900 427.38,-900 421.38,-894 421.38,-888 421.38,-888 421.38,-876 421.38,-876 421.38,-870 427.38,-864 433.38,-864 433.38,-864 520.62,-864 520.62,-864 526.62,-864 532.62,-870 532.62,-876 532.62,-876 532.62,-888 532.62,-888 532.62,-894 526.62,-900 520.62,-900"/>
<text text-anchor="middle" x="477" y="-883.75" font-family="sans" font-size="10.00">process_dengue_data</text>
<text text-anchor="middle" x="477" y="-872.5" font-family="sans" font-size="10.00">serotype: Dengue_2</text>
</g>
<!-- 6&#45;&gt;22 -->
<g id="edge38" class="edge">
<title>6&#45;&gt;22</title>
<path fill="none" stroke="grey" stroke-width="2" d="M527.84,-935.34C520.41,-927.69 511.54,-918.56 503.31,-910.08"/>
<polygon fill="grey" stroke="grey" stroke-width="2" points="505.98,-907.81 496.5,-903.07 500.96,-912.68 505.98,-907.81"/>
</g>
<!-- 36 -->
<g id="node37" class="node">
<title>36</title>
<path fill="none" stroke="#d8d356" stroke-width="2" stroke-dasharray="5,2" d="M656.62,-900C656.62,-900 569.38,-900 569.38,-900 563.38,-900 557.38,-894 557.38,-888 557.38,-888 557.38,-876 557.38,-876 557.38,-870 563.38,-864 569.38,-864 569.38,-864 656.62,-864 656.62,-864 662.62,-864 668.62,-870 668.62,-876 668.62,-876 668.62,-888 668.62,-888 668.62,-894 662.62,-900 656.62,-900"/>
<text text-anchor="middle" x="613" y="-883.75" font-family="sans" font-size="10.00">process_dengue_data</text>
<text text-anchor="middle" x="613" y="-872.5" font-family="sans" font-size="10.00">serotype: Dengue_3</text>
</g>
<!-- 6&#45;&gt;36 -->
<g id="edge63" class="edge">
<title>6&#45;&gt;36</title>
<path fill="none" stroke="grey" stroke-width="2" d="M562.16,-935.34C569.59,-927.69 578.46,-918.56 586.69,-910.08"/>
<polygon fill="grey" stroke="grey" stroke-width="2" points="589.04,-912.68 593.5,-903.07 584.02,-907.81 589.04,-912.68"/>
</g>
<!-- 50 -->
<g id="node51" class="node">
<title>50</title>
<path fill="none" stroke="#d8d356" stroke-width="2" stroke-dasharray="5,2" d="M878.62,-900C878.62,-900 791.38,-900 791.38,-900 785.38,-900 779.38,-894 779.38,-888 779.38,-888 779.38,-876 779.38,-876 779.38,-870 785.38,-864 791.38,-864 791.38,-864 878.62,-864 878.62,-864 884.62,-864 890.62,-870 890.62,-876 890.62,-876 890.62,-888 890.62,-888 890.62,-894 884.62,-900 878.62,-900"/>
<text text-anchor="middle" x="835" y="-883.75" font-family="sans" font-size="10.00">process_dengue_data</text>
<text text-anchor="middle" x="835" y="-872.5" font-family="sans" font-size="10.00">serotype: Dengue_4</text>
</g>
<!-- 6&#45;&gt;50 -->
<g id="edge88" class="edge">
<title>6&#45;&gt;50</title>
<path fill="none" stroke="grey" stroke-width="2" d="M593.54,-941.28C640.78,-929.88 713.04,-912.44 766.2,-899.61"/>
<polygon fill="grey" stroke="grey" stroke-width="2" points="766.75,-903.07 775.65,-897.33 765.11,-896.27 766.75,-903.07"/>
</g>
<!-- 7 -->
<g id="node8" class="node">
<title>7</title>
<path fill="none" stroke="#56d0d8" stroke-width="2" stroke-dasharray="5,2" d="M591.25,-1044C591.25,-1044 498.75,-1044 498.75,-1044 492.75,-1044 486.75,-1038 486.75,-1032 486.75,-1032 486.75,-1020 486.75,-1020 486.75,-1014 492.75,-1008 498.75,-1008 498.75,-1008 591.25,-1008 591.25,-1008 597.25,-1008 603.25,-1014 603.25,-1020 603.25,-1020 603.25,-1032 603.25,-1032 603.25,-1038 597.25,-1044 591.25,-1044"/>
<text text-anchor="middle" x="545" y="-1022.12" font-family="sans" font-size="10.00">process_genbank_data</text>
</g>
<!-- 7&#45;&gt;6 -->
<g id="edge12" class="edge">
<title>7&#45;&gt;6</title>
<path fill="none" stroke="grey" stroke-width="2" d="M545,-1007.34C545,-1000.75 545,-993.08 545,-985.67"/>
<polygon fill="grey" stroke="grey" stroke-width="2" points="548.5,-985.93 545,-975.93 541.5,-985.93 548.5,-985.93"/>
</g>
<!-- 8 -->
<g id="node9" class="node">
<title>8</title>
<path fill="none" stroke="#56d8a2" stroke-width="2" stroke-dasharray="5,2" d="M568.75,-1116C568.75,-1116 521.25,-1116 521.25,-1116 515.25,-1116 509.25,-1110 509.25,-1104 509.25,-1104 509.25,-1092 509.25,-1092 509.25,-1086 515.25,-1080 521.25,-1080 521.25,-1080 568.75,-1080 568.75,-1080 574.75,-1080 580.75,-1086 580.75,-1092 580.75,-1092 580.75,-1104 580.75,-1104 580.75,-1110 574.75,-1116 568.75,-1116"/>
<text text-anchor="middle" x="545" y="-1094.12" font-family="sans" font-size="10.00">acquire_data</text>
</g>
<!-- 8&#45;&gt;7 -->
<g id="edge13" class="edge">
<title>8&#45;&gt;7</title>
<path fill="none" stroke="grey" stroke-width="2" d="M545,-1079.34C545,-1072.75 545,-1065.08 545,-1057.67"/>
<polygon fill="grey" stroke="grey" stroke-width="2" points="548.5,-1057.93 545,-1047.93 541.5,-1057.93 548.5,-1057.93"/>
</g>
<!-- 9&#45;&gt;2 -->
<g id="edge8" class="edge">
<title>9&#45;&gt;2</title>
<path fill="none" stroke="grey" stroke-width="2" d="M193.74,-791.31C181.43,-772.62 160.57,-742.76 139,-720 130.01,-710.52 119.38,-701.11 109.38,-692.92"/>
<polygon fill="grey" stroke="grey" stroke-width="2" points="111.66,-690.26 101.66,-686.75 107.29,-695.73 111.66,-690.26"/>
</g>
<!-- 10 -->
<g id="node11" class="node">
<title>10</title>
<path fill="none" stroke="#56a9d8" stroke-width="2" stroke-dasharray="5,2" d="M211.88,-180C211.88,-180 108.12,-180 108.12,-180 102.12,-180 96.12,-174 96.12,-168 96.12,-168 96.12,-156 96.12,-156 96.12,-150 102.12,-144 108.12,-144 108.12,-144 211.88,-144 211.88,-144 217.88,-144 223.88,-150 223.88,-156 223.88,-156 223.88,-168 223.88,-168 223.88,-174 217.88,-180 211.88,-180"/>
<text text-anchor="middle" x="160" y="-158.12" font-family="sans" font-size="10.00">extract_phylogenetic_tree</text>
</g>
<!-- 10&#45;&gt;1 -->
<g id="edge6" class="edge">
<title>10&#45;&gt;1</title>
<path fill="none" stroke="grey" stroke-width="2" d="M160,-143.34C160,-136.75 160,-129.08 160,-121.67"/>
<polygon fill="grey" stroke="grey" stroke-width="2" points="163.5,-121.93 160,-111.93 156.5,-121.93 163.5,-121.93"/>
</g>
<!-- 11 -->
<g id="node12" class="node">
<title>11</title>
<path fill="none" stroke="#56c1d8" stroke-width="2" stroke-dasharray="5,2" d="M175,-252C175,-252 145,-252 145,-252 139,-252 133,-246 133,-240 133,-240 133,-228 133,-228 133,-222 139,-216 145,-216 145,-216 175,-216 175,-216 181,-216 187,-222 187,-228 187,-228 187,-240 187,-240 187,-246 181,-252 175,-252"/>
<text text-anchor="middle" x="160" y="-230.12" font-family="sans" font-size="10.00">export</text>
</g>
<!-- 11&#45;&gt;10 -->
<g id="edge15" class="edge">
<title>11&#45;&gt;10</title>
<path fill="none" stroke="grey" stroke-width="2" d="M160,-215.34C160,-208.75 160,-201.08 160,-193.67"/>
<polygon fill="grey" stroke="grey" stroke-width="2" points="163.5,-193.93 160,-183.93 156.5,-193.93 163.5,-193.93"/>
</g>
<!-- 12&#45;&gt;11 -->
<g id="edge16" class="edge">
<title>12&#45;&gt;11</title>
<path fill="none" stroke="grey" stroke-width="2" d="M138.92,-431.12C142.84,-394.62 151.82,-311.13 156.7,-265.74"/>
<polygon fill="grey" stroke="grey" stroke-width="2" points="160.16,-266.3 157.74,-255.99 153.2,-265.56 160.16,-266.3"/>
</g>
<!-- 15 -->
<g id="node16" class="node">
<title>15</title>
<path fill="none" stroke="#56d8c9" stroke-width="2" stroke-dasharray="5,2" d="M234.38,-396C234.38,-396 199.62,-396 199.62,-396 193.62,-396 187.62,-390 187.62,-384 187.62,-384 187.62,-372 187.62,-372 187.62,-366 193.62,-360 199.62,-360 199.62,-360 234.38,-360 234.38,-360 240.38,-360 246.38,-366 246.38,-372 246.38,-372 246.38,-384 246.38,-384 246.38,-390 240.38,-396 234.38,-396"/>
<text text-anchor="middle" x="217" y="-374.12" font-family="sans" font-size="10.00">mugration</text>
</g>
<!-- 12&#45;&gt;15 -->
<g id="edge26" class="edge">
<title>12&#45;&gt;15</title>
<path fill="none" stroke="grey" stroke-width="2" d="M157.19,-431.34C166.21,-423.44 177.04,-413.96 186.99,-405.26"/>
<polygon fill="grey" stroke="grey" stroke-width="2" points="189.04,-408.11 194.26,-398.9 184.43,-402.85 189.04,-408.11"/>
</g>
<!-- 16 -->
<g id="node17" class="node">
<title>16</title>
<path fill="none" stroke="#5682d8" stroke-width="2" stroke-dasharray="5,2" d="M119.5,-324C119.5,-324 82.5,-324 82.5,-324 76.5,-324 70.5,-318 70.5,-312 70.5,-312 70.5,-300 70.5,-300 70.5,-294 76.5,-288 82.5,-288 82.5,-288 119.5,-288 119.5,-288 125.5,-288 131.5,-294 131.5,-300 131.5,-300 131.5,-312 131.5,-312 131.5,-318 125.5,-324 119.5,-324"/>
<text text-anchor="middle" x="101" y="-302.12" font-family="sans" font-size="10.00">translation</text>
</g>
<!-- 12&#45;&gt;16 -->
<g id="edge29" class="edge">
<title>12&#45;&gt;16</title>
<path fill="none" stroke="grey" stroke-width="2" d="M132.44,-431.02C126.46,-407.44 115.89,-365.73 108.67,-337.25"/>
<polygon fill="grey" stroke="grey" stroke-width="2" points="112.12,-336.61 106.27,-327.77 105.33,-338.33 112.12,-336.61"/>
</g>
<!-- 12&#45;&gt;17 -->
<g id="edge31" class="edge">
<title>12&#45;&gt;17</title>
<path fill="none" stroke="grey" stroke-width="2" d="M117.32,-431.34C108.61,-423.52 98.18,-414.16 88.57,-405.53"/>
<polygon fill="grey" stroke="grey" stroke-width="2" points="90.98,-403 81.2,-398.92 86.31,-408.21 90.98,-403"/>
</g>
<!-- 13 -->
<g id="node14" class="node">
<title>13</title>
<path fill="none" stroke="#78d856" stroke-width="2" stroke-dasharray="5,2" d="M157.75,-540C157.75,-540 116.25,-540 116.25,-540 110.25,-540 104.25,-534 104.25,-528 104.25,-528 104.25,-516 104.25,-516 104.25,-510 110.25,-504 116.25,-504 116.25,-504 157.75,-504 157.75,-504 163.75,-504 169.75,-510 169.75,-516 169.75,-516 169.75,-528 169.75,-528 169.75,-534 163.75,-540 157.75,-540"/>
<text text-anchor="middle" x="137" y="-518.12" font-family="sans" font-size="10.00">treebuilding</text>
</g>
<!-- 13&#45;&gt;12 -->
<g id="edge22" class="edge">
<title>13&#45;&gt;12</title>
<path fill="none" stroke="grey" stroke-width="2" d="M137,-503.34C137,-496.75 137,-489.08 137,-481.67"/>
<polygon fill="grey" stroke="grey" stroke-width="2" points="140.5,-481.93 137,-471.93 133.5,-481.93 140.5,-481.93"/>
</g>
<!-- 14&#45;&gt;11 -->
<g id="edge17" class="edge">
<title>14&#45;&gt;11</title>
<path fill="none" stroke="grey" stroke-width="2" d="M214.87,-575.35C237.26,-549.98 274,-500.77 274,-451 274,-451 274,-451 274,-377 274,-327.51 231.36,-285.44 198.24,-260.23"/>
<polygon fill="grey" stroke="grey" stroke-width="2" points="200.47,-257.52 190.33,-254.44 196.33,-263.17 200.47,-257.52"/>
</g>
<!-- 14&#45;&gt;12 -->
<g id="edge23" class="edge">
<title>14&#45;&gt;12</title>
<path fill="none" stroke="grey" stroke-width="2" d="M196.61,-575.18C194.62,-556.64 189.91,-527.15 179,-504 174.8,-495.09 168.85,-486.33 162.74,-478.58"/>
<polygon fill="grey" stroke="grey" stroke-width="2" points="165.51,-476.44 156.4,-471.03 160.15,-480.94 165.51,-476.44"/>
</g>
<!-- 14&#45;&gt;13 -->
<g id="edge24" class="edge">
<title>14&#45;&gt;13</title>
<path fill="none" stroke="grey" stroke-width="2" d="M182.61,-575.34C176.08,-567.85 168.33,-558.95 161.08,-550.63"/>
<polygon fill="grey" stroke="grey" stroke-width="2" points="163.8,-548.42 154.59,-543.18 158.52,-553.02 163.8,-548.42"/>
</g>
<!-- 14&#45;&gt;15 -->
<g id="edge27" class="edge">
<title>14&#45;&gt;15</title>
<path fill="none" stroke="grey" stroke-width="2" d="M199.59,-575.12C202.83,-538.62 210.24,-455.13 214.27,-409.74"/>
<polygon fill="grey" stroke="grey" stroke-width="2" points="217.74,-410.26 215.14,-399.99 210.77,-409.64 217.74,-410.26"/>
</g>
<!-- 15&#45;&gt;11 -->
<g id="edge18" class="edge">
<title>15&#45;&gt;11</title>
<path fill="none" stroke="grey" stroke-width="2" d="M209.78,-359.02C200.27,-335.33 183.42,-293.35 171.99,-264.86"/>
<polygon fill="grey" stroke="grey" stroke-width="2" points="175.26,-263.62 168.29,-255.65 168.77,-266.23 175.26,-263.62"/>
</g>
<!-- 16&#45;&gt;11 -->
<g id="edge19" class="edge">
<title>16&#45;&gt;11</title>
<path fill="none" stroke="grey" stroke-width="2" d="M115.89,-287.34C122.2,-279.85 129.7,-270.95 136.71,-262.63"/>
<polygon fill="grey" stroke="grey" stroke-width="2" points="139.19,-265.12 142.96,-255.22 133.84,-260.61 139.19,-265.12"/>
</g>
<!-- 17&#45;&gt;11 -->
<g id="edge20" class="edge">
<title>17&#45;&gt;11</title>
<path fill="none" stroke="grey" stroke-width="2" d="M54.45,-359.15C50.64,-340.05 47.73,-309.6 61,-288 74.05,-266.75 98.77,-253.51 120.25,-245.57"/>
<polygon fill="grey" stroke="grey" stroke-width="2" points="121.16,-248.96 129.53,-242.46 118.94,-242.32 121.16,-248.96"/>
</g>
<!-- 17&#45;&gt;16 -->
<g id="edge28" class="edge">
<title>17&#45;&gt;16</title>
<path fill="none" stroke="grey" stroke-width="2" d="M69.6,-359.34C73.84,-352.26 78.85,-343.92 83.6,-336"/>
<polygon fill="grey" stroke="grey" stroke-width="2" points="86.56,-337.87 88.7,-327.5 80.56,-334.27 86.56,-337.87"/>
</g>
<!-- 18 -->
<g id="node19" class="node">
<title>18</title>
<path fill="none" stroke="#b6d856" stroke-width="2" stroke-dasharray="5,2" d="M518,-108C518,-108 376,-108 376,-108 370,-108 364,-102 364,-96 364,-96 364,-84 364,-84 364,-78 370,-72 376,-72 376,-72 518,-72 518,-72 524,-72 530,-78 530,-84 530,-84 530,-96 530,-96 530,-102 524,-108 518,-108"/>
<text text-anchor="middle" x="447" y="-86.12" font-family="sans" font-size="10.00">filter_fasta_and_prepare_metadata</text>
</g>
<!-- 18&#45;&gt;0 -->
<g id="edge2" class="edge">
<title>18&#45;&gt;0</title>
<path fill="none" stroke="grey" stroke-width="2" d="M470.22,-71.34C480.81,-63.27 493.57,-53.57 505.2,-44.72"/>
<polygon fill="grey" stroke="grey" stroke-width="2" points="507.22,-47.58 513.06,-38.73 502.99,-42 507.22,-47.58"/>
</g>
<!-- 19 -->
<g id="node20" class="node">
<title>19</title>
<path fill="none" stroke="#88d856" stroke-width="2" stroke-dasharray="5,2" d="M404.38,-684C404.38,-684 333.62,-684 333.62,-684 327.62,-684 321.62,-678 321.62,-672 321.62,-672 321.62,-660 321.62,-660 321.62,-654 327.62,-648 333.62,-648 333.62,-648 404.38,-648 404.38,-648 410.38,-648 416.38,-654 416.38,-660 416.38,-660 416.38,-672 416.38,-672 416.38,-678 410.38,-684 404.38,-684"/>
<text text-anchor="middle" x="369" y="-662.12" font-family="sans" font-size="10.00">subsample_denv2</text>
</g>
<!-- 19&#45;&gt;18 -->
<g id="edge32" class="edge">
<title>19&#45;&gt;18</title>
<path fill="none" stroke="grey" stroke-width="2" d="M356.63,-647.09C339.87,-621.03 312,-570.55 312,-523 312,-523 312,-523 312,-233 312,-180.52 361.03,-139.73 399.99,-115.59"/>
<polygon fill="grey" stroke="grey" stroke-width="2" points="401.77,-118.6 408.58,-110.48 398.19,-112.59 401.77,-118.6"/>
</g>
<!-- 26 -->
<g id="node27" class="node">
<title>26</title>
<path fill="none" stroke="#d89556" stroke-width="2" stroke-dasharray="5,2" d="M464,-468C464,-468 434,-468 434,-468 428,-468 422,-462 422,-456 422,-456 422,-444 422,-444 422,-438 428,-432 434,-432 434,-432 464,-432 464,-432 470,-432 476,-438 476,-444 476,-444 476,-456 476,-456 476,-462 470,-468 464,-468"/>
<text text-anchor="middle" x="449" y="-446.12" font-family="sans" font-size="10.00">treetime</text>
</g>
<!-- 19&#45;&gt;26 -->
<g id="edge46" class="edge">
<title>19&#45;&gt;26</title>
<path fill="none" stroke="grey" stroke-width="2" d="M370.64,-647.24C374.01,-616.64 383.47,-552.59 407,-504 411.29,-495.14 417.28,-486.39 423.39,-478.64"/>
<polygon fill="grey" stroke="grey" stroke-width="2" points="425.98,-481 429.71,-471.09 420.61,-476.51 425.98,-481"/>
</g>
<!-- 28 -->
<g id="node29" class="node">
<title>28</title>
<path fill="none" stroke="#d87d56" stroke-width="2" stroke-dasharray="5,2" d="M549.88,-612C549.88,-612 470.12,-612 470.12,-612 464.12,-612 458.12,-606 458.12,-600 458.12,-600 458.12,-588 458.12,-588 458.12,-582 464.12,-576 470.12,-576 470.12,-576 549.88,-576 549.88,-576 555.88,-576 561.88,-582 561.88,-588 561.88,-588 561.88,-600 561.88,-600 561.88,-606 555.88,-612 549.88,-612"/>
<text text-anchor="middle" x="510" y="-595.75" font-family="sans" font-size="10.00">reformatting</text>
<text text-anchor="middle" x="510" y="-584.5" font-family="sans" font-size="10.00">serotype: Dengue_2</text>
</g>
<!-- 19&#45;&gt;28 -->
<g id="edge50" class="edge">
<title>19&#45;&gt;28</title>
<path fill="none" stroke="grey" stroke-width="2" d="M404.95,-647.15C422.43,-638.47 443.68,-627.92 462.48,-618.59"/>
<polygon fill="grey" stroke="grey" stroke-width="2" points="464.01,-621.74 471.41,-614.16 460.9,-615.47 464.01,-621.74"/>
</g>
<!-- 31 -->
<g id="node32" class="node">
<title>31</title>
<path fill="none" stroke="#d8bc56" stroke-width="2" stroke-dasharray="5,2" d="M389.38,-396C389.38,-396 354.62,-396 354.62,-396 348.62,-396 342.62,-390 342.62,-384 342.62,-384 342.62,-372 342.62,-372 342.62,-366 348.62,-360 354.62,-360 354.62,-360 389.38,-360 389.38,-360 395.38,-360 401.38,-366 401.38,-372 401.38,-372 401.38,-384 401.38,-384 401.38,-390 395.38,-396 389.38,-396"/>
<text text-anchor="middle" x="372" y="-374.12" font-family="sans" font-size="10.00">mutations</text>
</g>
<!-- 19&#45;&gt;31 -->
<g id="edge55" class="edge">
<title>19&#45;&gt;31</title>
<path fill="none" stroke="grey" stroke-width="2" d="M369.19,-647.11C369.69,-599.56 371.05,-469.6 371.68,-409.83"/>
<polygon fill="grey" stroke="grey" stroke-width="2" points="375.18,-409.95 371.78,-399.91 368.18,-409.87 375.18,-409.95"/>
</g>
<!-- 20 -->
<g id="node21" class="node">
<title>20</title>
<path fill="none" stroke="#56d873" stroke-width="2" stroke-dasharray="5,2" d="M390.5,-756C390.5,-756 299.5,-756 299.5,-756 293.5,-756 287.5,-750 287.5,-744 287.5,-744 287.5,-732 287.5,-732 287.5,-726 293.5,-720 299.5,-720 299.5,-720 390.5,-720 390.5,-720 396.5,-720 402.5,-726 402.5,-732 402.5,-732 402.5,-744 402.5,-744 402.5,-750 396.5,-756 390.5,-756"/>
<text text-anchor="middle" x="345" y="-734.12" font-family="sans" font-size="10.00">split_genome_and_QC</text>
</g>
<!-- 20&#45;&gt;19 -->
<g id="edge34" class="edge">
<title>20&#45;&gt;19</title>
<path fill="none" stroke="grey" stroke-width="2" d="M351.06,-719.34C353.37,-712.59 356.08,-704.69 358.68,-697.11"/>
<polygon fill="grey" stroke="grey" stroke-width="2" points="361.95,-698.36 361.88,-687.77 355.33,-696.09 361.95,-698.36"/>
</g>
<!-- 21 -->
<g id="node22" class="node">
<title>21</title>
<path fill="none" stroke="#9fd856" stroke-width="2" stroke-dasharray="5,2" d="M381.62,-828C381.62,-828 300.38,-828 300.38,-828 294.38,-828 288.38,-822 288.38,-816 288.38,-816 288.38,-804 288.38,-804 288.38,-798 294.38,-792 300.38,-792 300.38,-792 381.62,-792 381.62,-792 387.62,-792 393.62,-798 393.62,-804 393.62,-804 393.62,-816 393.62,-816 393.62,-822 387.62,-828 381.62,-828"/>
<text text-anchor="middle" x="341" y="-806.12" font-family="sans" font-size="10.00">sequence_alignment</text>
</g>
<!-- 21&#45;&gt;20 -->
<g id="edge36" class="edge">
<title>21&#45;&gt;20</title>
<path fill="none" stroke="grey" stroke-width="2" d="M342.01,-791.34C342.39,-784.75 342.82,-777.08 343.25,-769.67"/>
<polygon fill="grey" stroke="grey" stroke-width="2" points="346.73,-770.11 343.8,-759.92 339.74,-769.71 346.73,-770.11"/>
</g>
<!-- 22&#45;&gt;21 -->
<g id="edge37" class="edge">
<title>22&#45;&gt;21</title>
<path fill="none" stroke="grey" stroke-width="2" d="M442.33,-863.15C425.54,-854.52 405.16,-844.02 387.09,-834.72"/>
<polygon fill="grey" stroke="grey" stroke-width="2" points="388.79,-831.66 378.3,-830.2 385.59,-837.89 388.79,-831.66"/>
</g>
<!-- 23 -->
<g id="node24" class="node">
<title>23</title>
<path fill="none" stroke="#56d863" stroke-width="2" stroke-dasharray="5,2" d="M530,-828C530,-828 424,-828 424,-828 418,-828 412,-822 412,-816 412,-816 412,-804 412,-804 412,-798 418,-792 424,-792 424,-792 530,-792 530,-792 536,-792 542,-798 542,-804 542,-804 542,-816 542,-816 542,-822 536,-828 530,-828"/>
<text text-anchor="middle" x="477" y="-806.12" font-family="sans" font-size="10.00">add_genotype_information</text>
</g>
<!-- 22&#45;&gt;23 -->
<g id="edge39" class="edge">
<title>22&#45;&gt;23</title>
<path fill="none" stroke="grey" stroke-width="2" d="M477,-863.34C477,-856.75 477,-849.08 477,-841.67"/>
<polygon fill="grey" stroke="grey" stroke-width="2" points="480.5,-841.93 477,-831.93 473.5,-841.93 480.5,-841.93"/>
</g>
<!-- 23&#45;&gt;19 -->
<g id="edge35" class="edge">
<title>23&#45;&gt;19</title>
<path fill="none" stroke="grey" stroke-width="2" d="M464.02,-791.14C450.83,-773.08 429.73,-744.43 411,-720 404.64,-711.71 397.63,-702.78 391.18,-694.65"/>
<polygon fill="grey" stroke="grey" stroke-width="2" points="394,-692.56 385.03,-686.92 388.52,-696.93 394,-692.56"/>
</g>
<!-- 24 -->
<g id="node25" class="node">
<title>24</title>
<path fill="none" stroke="#56a9d8" stroke-width="2" stroke-dasharray="5,2" d="M512.88,-180C512.88,-180 409.12,-180 409.12,-180 403.12,-180 397.12,-174 397.12,-168 397.12,-168 397.12,-156 397.12,-156 397.12,-150 403.12,-144 409.12,-144 409.12,-144 512.88,-144 512.88,-144 518.88,-144 524.88,-150 524.88,-156 524.88,-156 524.88,-168 524.88,-168 524.88,-174 518.88,-180 512.88,-180"/>
<text text-anchor="middle" x="461" y="-158.12" font-family="sans" font-size="10.00">extract_phylogenetic_tree</text>
</g>
<!-- 24&#45;&gt;18 -->
<g id="edge33" class="edge">
<title>24&#45;&gt;18</title>
<path fill="none" stroke="grey" stroke-width="2" d="M457.47,-143.34C456.15,-136.75 454.62,-129.08 453.13,-121.67"/>
<polygon fill="grey" stroke="grey" stroke-width="2" points="456.57,-120.99 451.17,-111.87 449.7,-122.36 456.57,-120.99"/>
</g>
<!-- 25 -->
<g id="node26" class="node">
<title>25</title>
<path fill="none" stroke="#56c1d8" stroke-width="2" stroke-dasharray="5,2" d="M480,-252C480,-252 450,-252 450,-252 444,-252 438,-246 438,-240 438,-240 438,-228 438,-228 438,-222 444,-216 450,-216 450,-216 480,-216 480,-216 486,-216 492,-222 492,-228 492,-228 492,-240 492,-240 492,-246 486,-252 480,-252"/>
<text text-anchor="middle" x="465" y="-230.12" font-family="sans" font-size="10.00">export</text>
</g>
<!-- 25&#45;&gt;24 -->
<g id="edge40" class="edge">
<title>25&#45;&gt;24</title>
<path fill="none" stroke="grey" stroke-width="2" d="M463.99,-215.34C463.61,-208.75 463.18,-201.08 462.75,-193.67"/>
<polygon fill="grey" stroke="grey" stroke-width="2" points="466.26,-193.71 462.2,-183.92 459.27,-194.11 466.26,-193.71"/>
</g>
<!-- 26&#45;&gt;25 -->
<g id="edge41" class="edge">
<title>26&#45;&gt;25</title>
<path fill="none" stroke="grey" stroke-width="2" d="M450.34,-431.12C453.07,-394.62 459.31,-311.13 462.7,-265.74"/>
<polygon fill="grey" stroke="grey" stroke-width="2" points="466.17,-266.23 463.43,-256 459.19,-265.71 466.17,-266.23"/>
</g>
<!-- 29 -->
<g id="node30" class="node">
<title>29</title>
<path fill="none" stroke="#56d8c9" stroke-width="2" stroke-dasharray="5,2" d="M544.38,-396C544.38,-396 509.62,-396 509.62,-396 503.62,-396 497.62,-390 497.62,-384 497.62,-384 497.62,-372 497.62,-372 497.62,-366 503.62,-360 509.62,-360 509.62,-360 544.38,-360 544.38,-360 550.38,-360 556.38,-366 556.38,-372 556.38,-372 556.38,-384 556.38,-384 556.38,-390 550.38,-396 544.38,-396"/>
<text text-anchor="middle" x="527" y="-374.12" font-family="sans" font-size="10.00">mugration</text>
</g>
<!-- 26&#45;&gt;29 -->
<g id="edge51" class="edge">
<title>26&#45;&gt;29</title>
<path fill="none" stroke="grey" stroke-width="2" d="M468.68,-431.34C477.39,-423.52 487.82,-414.16 497.43,-405.53"/>
<polygon fill="grey" stroke="grey" stroke-width="2" points="499.69,-408.21 504.8,-398.92 495.02,-403 499.69,-408.21"/>
</g>
<!-- 30 -->
<g id="node31" class="node">
<title>30</title>
<path fill="none" stroke="#5682d8" stroke-width="2" stroke-dasharray="5,2" d="M429.5,-324C429.5,-324 392.5,-324 392.5,-324 386.5,-324 380.5,-318 380.5,-312 380.5,-312 380.5,-300 380.5,-300 380.5,-294 386.5,-288 392.5,-288 392.5,-288 429.5,-288 429.5,-288 435.5,-288 441.5,-294 441.5,-300 441.5,-300 441.5,-312 441.5,-312 441.5,-318 435.5,-324 429.5,-324"/>
<text text-anchor="middle" x="411" y="-302.12" font-family="sans" font-size="10.00">translation</text>
</g>
<!-- 26&#45;&gt;30 -->
<g id="edge54" class="edge">
<title>26&#45;&gt;30</title>
<path fill="none" stroke="grey" stroke-width="2" d="M444.19,-431.02C437.88,-407.44 426.72,-365.73 419.1,-337.25"/>
<polygon fill="grey" stroke="grey" stroke-width="2" points="422.52,-336.52 416.56,-327.76 415.76,-338.33 422.52,-336.52"/>
</g>
<!-- 26&#45;&gt;31 -->
<g id="edge56" class="edge">
<title>26&#45;&gt;31</title>
<path fill="none" stroke="grey" stroke-width="2" d="M429.57,-431.34C420.97,-423.52 410.68,-414.16 401.19,-405.53"/>
<polygon fill="grey" stroke="grey" stroke-width="2" points="403.69,-403.07 393.93,-398.94 398.98,-408.25 403.69,-403.07"/>
</g>
<!-- 27 -->
<g id="node28" class="node">
<title>27</title>
<path fill="none" stroke="#78d856" stroke-width="2" stroke-dasharray="5,2" d="M469.75,-540C469.75,-540 428.25,-540 428.25,-540 422.25,-540 416.25,-534 416.25,-528 416.25,-528 416.25,-516 416.25,-516 416.25,-510 422.25,-504 428.25,-504 428.25,-504 469.75,-504 469.75,-504 475.75,-504 481.75,-510 481.75,-516 481.75,-516 481.75,-528 481.75,-528 481.75,-534 475.75,-540 469.75,-540"/>
<text text-anchor="middle" x="449" y="-518.12" font-family="sans" font-size="10.00">treebuilding</text>
</g>
<!-- 27&#45;&gt;26 -->
<g id="edge47" class="edge">
<title>27&#45;&gt;26</title>
<path fill="none" stroke="grey" stroke-width="2" d="M449,-503.34C449,-496.75 449,-489.08 449,-481.67"/>
<polygon fill="grey" stroke="grey" stroke-width="2" points="452.5,-481.93 449,-471.93 445.5,-481.93 452.5,-481.93"/>
</g>
<!-- 28&#45;&gt;25 -->
<g id="edge42" class="edge">
<title>28&#45;&gt;25</title>
<path fill="none" stroke="grey" stroke-width="2" d="M526.87,-575.35C549.26,-549.98 586,-500.77 586,-451 586,-451 586,-451 586,-377 586,-325.19 538.76,-282.69 503.32,-258.09"/>
<polygon fill="grey" stroke="grey" stroke-width="2" points="505.54,-255.36 495.28,-252.72 501.65,-261.18 505.54,-255.36"/>
</g>
<!-- 28&#45;&gt;26 -->
<g id="edge48" class="edge">
<title>28&#45;&gt;26</title>
<path fill="none" stroke="grey" stroke-width="2" d="M508.61,-575.18C506.62,-556.64 501.91,-527.15 491,-504 486.8,-495.09 480.85,-486.33 474.74,-478.58"/>
<polygon fill="grey" stroke="grey" stroke-width="2" points="477.51,-476.44 468.4,-471.03 472.15,-480.94 477.51,-476.44"/>
</g>
<!-- 28&#45;&gt;27 -->
<g id="edge49" class="edge">
<title>28&#45;&gt;27</title>
<path fill="none" stroke="grey" stroke-width="2" d="M494.61,-575.34C488.08,-567.85 480.33,-558.95 473.08,-550.63"/>
<polygon fill="grey" stroke="grey" stroke-width="2" points="475.8,-548.42 466.59,-543.18 470.52,-553.02 475.8,-548.42"/>
</g>
<!-- 28&#45;&gt;29 -->
<g id="edge52" class="edge">
<title>28&#45;&gt;29</title>
<path fill="none" stroke="grey" stroke-width="2" d="M511.42,-575.12C514.32,-538.62 520.95,-455.13 524.56,-409.74"/>
<polygon fill="grey" stroke="grey" stroke-width="2" points="528.03,-410.24 525.33,-399.99 521.05,-409.69 528.03,-410.24"/>
</g>
<!-- 29&#45;&gt;25 -->
<g id="edge43" class="edge">
<title>29&#45;&gt;25</title>
<path fill="none" stroke="grey" stroke-width="2" d="M519.15,-359.02C508.76,-335.22 490.31,-292.97 477.87,-264.48"/>
<polygon fill="grey" stroke="grey" stroke-width="2" points="481.21,-263.38 474,-255.61 474.79,-266.18 481.21,-263.38"/>
</g>
<!-- 30&#45;&gt;25 -->
<g id="edge44" class="edge">
<title>30&#45;&gt;25</title>
<path fill="none" stroke="grey" stroke-width="2" d="M424.63,-287.34C430.27,-280.01 436.97,-271.34 443.26,-263.18"/>
<polygon fill="grey" stroke="grey" stroke-width="2" points="446,-265.35 449.34,-255.3 440.46,-261.08 446,-265.35"/>
</g>
<!-- 31&#45;&gt;25 -->
<g id="edge45" class="edge">
<title>31&#45;&gt;25</title>
<path fill="none" stroke="grey" stroke-width="2" d="M366.75,-359.26C362.22,-340.25 358.22,-309.88 371,-288 382.74,-267.91 405.22,-254.83 425.25,-246.7"/>
<polygon fill="grey" stroke="grey" stroke-width="2" points="426.28,-250.05 434.45,-243.3 423.86,-243.48 426.28,-250.05"/>
</g>
<!-- 31&#45;&gt;30 -->
<g id="edge53" class="edge">
<title>31&#45;&gt;30</title>
<path fill="none" stroke="grey" stroke-width="2" d="M381.84,-359.34C385.74,-352.34 390.32,-344.12 394.69,-336.28"/>
<polygon fill="grey" stroke="grey" stroke-width="2" points="397.74,-337.99 399.55,-327.55 391.63,-334.58 397.74,-337.99"/>
</g>
<!-- 32 -->
<g id="node33" class="node">
<title>32</title>
<path fill="none" stroke="#b6d856" stroke-width="2" stroke-dasharray="5,2" d="M702,-108C702,-108 560,-108 560,-108 554,-108 548,-102 548,-96 548,-96 548,-84 548,-84 548,-78 554,-72 560,-72 560,-72 702,-72 702,-72 708,-72 714,-78 714,-84 714,-84 714,-96 714,-96 714,-102 708,-108 702,-108"/>
<text text-anchor="middle" x="631" y="-86.12" font-family="sans" font-size="10.00">filter_fasta_and_prepare_metadata</text>
</g>
<!-- 32&#45;&gt;0 -->
<g id="edge3" class="edge">
<title>32&#45;&gt;0</title>
<path fill="none" stroke="grey" stroke-width="2" d="M607.78,-71.34C597.19,-63.27 584.43,-53.57 572.8,-44.72"/>
<polygon fill="grey" stroke="grey" stroke-width="2" points="575.01,-42 564.94,-38.73 570.78,-47.58 575.01,-42"/>
</g>
<!-- 33 -->
<g id="node34" class="node">
<title>33</title>
<path fill="none" stroke="#d86e56" stroke-width="2" stroke-dasharray="5,2" d="M713.38,-684C713.38,-684 642.62,-684 642.62,-684 636.62,-684 630.62,-678 630.62,-672 630.62,-672 630.62,-660 630.62,-660 630.62,-654 636.62,-648 642.62,-648 642.62,-648 713.38,-648 713.38,-648 719.38,-648 725.38,-654 725.38,-660 725.38,-660 725.38,-672 725.38,-672 725.38,-678 719.38,-684 713.38,-684"/>
<text text-anchor="middle" x="678" y="-662.12" font-family="sans" font-size="10.00">subsample_denv3</text>
</g>
<!-- 33&#45;&gt;32 -->
<g id="edge57" class="edge">
<title>33&#45;&gt;32</title>
<path fill="none" stroke="grey" stroke-width="2" d="M666.28,-647C650.4,-620.83 624,-570.21 624,-523 624,-523 624,-523 624,-233 624,-194.61 626.58,-150.45 628.61,-121.7"/>
<polygon fill="grey" stroke="grey" stroke-width="2" points="632.09,-122.17 629.33,-111.94 625.11,-121.66 632.09,-122.17"/>
</g>
<!-- 40 -->
<g id="node41" class="node">
<title>40</title>
<path fill="none" stroke="#d89556" stroke-width="2" stroke-dasharray="5,2" d="M776,-468C776,-468 746,-468 746,-468 740,-468 734,-462 734,-456 734,-456 734,-444 734,-444 734,-438 740,-432 746,-432 746,-432 776,-432 776,-432 782,-432 788,-438 788,-444 788,-444 788,-456 788,-456 788,-462 782,-468 776,-468"/>
<text text-anchor="middle" x="761" y="-446.12" font-family="sans" font-size="10.00">treetime</text>
</g>
<!-- 33&#45;&gt;40 -->
<g id="edge71" class="edge">
<title>33&#45;&gt;40</title>
<path fill="none" stroke="grey" stroke-width="2" d="M680.05,-647.24C684.11,-616.64 694.94,-552.6 719,-504 723.37,-495.18 729.38,-486.44 735.5,-478.69"/>
<polygon fill="grey" stroke="grey" stroke-width="2" points="738.08,-481.05 741.81,-471.13 732.71,-476.57 738.08,-481.05"/>
</g>
<!-- 42 -->
<g id="node43" class="node">
<title>42</title>
<path fill="none" stroke="#d87d56" stroke-width="2" stroke-dasharray="5,2" d="M861.88,-612C861.88,-612 782.12,-612 782.12,-612 776.12,-612 770.12,-606 770.12,-600 770.12,-600 770.12,-588 770.12,-588 770.12,-582 776.12,-576 782.12,-576 782.12,-576 861.88,-576 861.88,-576 867.88,-576 873.88,-582 873.88,-588 873.88,-588 873.88,-600 873.88,-600 873.88,-606 867.88,-612 861.88,-612"/>
<text text-anchor="middle" x="822" y="-595.75" font-family="sans" font-size="10.00">reformatting</text>
<text text-anchor="middle" x="822" y="-584.5" font-family="sans" font-size="10.00">serotype: Dengue_3</text>
</g>
<!-- 33&#45;&gt;42 -->
<g id="edge75" class="edge">
<title>33&#45;&gt;42</title>
<path fill="none" stroke="grey" stroke-width="2" d="M714.71,-647.15C732.58,-638.47 754.31,-627.91 773.52,-618.56"/>
<polygon fill="grey" stroke="grey" stroke-width="2" points="774.92,-621.78 782.38,-614.26 771.86,-615.48 774.92,-621.78"/>
</g>
<!-- 45 -->
<g id="node46" class="node">
<title>45</title>
<path fill="none" stroke="#d8bc56" stroke-width="2" stroke-dasharray="5,2" d="M700.38,-396C700.38,-396 665.62,-396 665.62,-396 659.62,-396 653.62,-390 653.62,-384 653.62,-384 653.62,-372 653.62,-372 653.62,-366 659.62,-360 665.62,-360 665.62,-360 700.38,-360 700.38,-360 706.38,-360 712.38,-366 712.38,-372 712.38,-372 712.38,-384 712.38,-384 712.38,-390 706.38,-396 700.38,-396"/>
<text text-anchor="middle" x="683" y="-374.12" font-family="sans" font-size="10.00">mutations</text>
</g>
<!-- 33&#45;&gt;45 -->
<g id="edge80" class="edge">
<title>33&#45;&gt;45</title>
<path fill="none" stroke="grey" stroke-width="2" d="M678.31,-647.11C679.14,-599.56 681.42,-469.6 682.46,-409.83"/>
<polygon fill="grey" stroke="grey" stroke-width="2" points="685.96,-409.97 682.63,-399.91 678.96,-409.85 685.96,-409.97"/>
</g>
<!-- 34 -->
<g id="node35" class="node">
<title>34</title>
<path fill="none" stroke="#56d873" stroke-width="2" stroke-dasharray="5,2" d="M598.5,-756C598.5,-756 507.5,-756 507.5,-756 501.5,-756 495.5,-750 495.5,-744 495.5,-744 495.5,-732 495.5,-732 495.5,-726 501.5,-720 507.5,-720 507.5,-720 598.5,-720 598.5,-720 604.5,-720 610.5,-726 610.5,-732 610.5,-732 610.5,-744 610.5,-744 610.5,-750 604.5,-756 598.5,-756"/>
<text text-anchor="middle" x="553" y="-734.12" font-family="sans" font-size="10.00">split_genome_and_QC</text>
</g>
<!-- 34&#45;&gt;33 -->
<g id="edge59" class="edge">
<title>34&#45;&gt;33</title>
<path fill="none" stroke="grey" stroke-width="2" d="M584.87,-719.15C600.15,-710.6 618.67,-700.22 635.16,-690.99"/>
<polygon fill="grey" stroke="grey" stroke-width="2" points="636.54,-694.23 643.55,-686.29 633.12,-688.12 636.54,-694.23"/>
</g>
<!-- 35 -->
<g id="node36" class="node">
<title>35</title>
<path fill="none" stroke="#9fd856" stroke-width="2" stroke-dasharray="5,2" d="M653.62,-828C653.62,-828 572.38,-828 572.38,-828 566.38,-828 560.38,-822 560.38,-816 560.38,-816 560.38,-804 560.38,-804 560.38,-798 566.38,-792 572.38,-792 572.38,-792 653.62,-792 653.62,-792 659.62,-792 665.62,-798 665.62,-804 665.62,-804 665.62,-816 665.62,-816 665.62,-822 659.62,-828 653.62,-828"/>
<text text-anchor="middle" x="613" y="-806.12" font-family="sans" font-size="10.00">sequence_alignment</text>
</g>
<!-- 35&#45;&gt;34 -->
<g id="edge61" class="edge">
<title>35&#45;&gt;34</title>
<path fill="none" stroke="grey" stroke-width="2" d="M597.86,-791.34C591.44,-783.85 583.81,-774.95 576.68,-766.63"/>
<polygon fill="grey" stroke="grey" stroke-width="2" points="579.48,-764.51 570.31,-759.2 574.16,-769.07 579.48,-764.51"/>
</g>
<!-- 36&#45;&gt;35 -->
<g id="edge62" class="edge">
<title>36&#45;&gt;35</title>
<path fill="none" stroke="grey" stroke-width="2" d="M613,-863.34C613,-856.75 613,-849.08 613,-841.67"/>
<polygon fill="grey" stroke="grey" stroke-width="2" points="616.5,-841.93 613,-831.93 609.5,-841.93 616.5,-841.93"/>
</g>
<!-- 37 -->
<g id="node38" class="node">
<title>37</title>
<path fill="none" stroke="#56d863" stroke-width="2" stroke-dasharray="5,2" d="M747,-756C747,-756 641,-756 641,-756 635,-756 629,-750 629,-744 629,-744 629,-732 629,-732 629,-726 635,-720 641,-720 641,-720 747,-720 747,-720 753,-720 759,-726 759,-732 759,-732 759,-744 759,-744 759,-750 753,-756 747,-756"/>
<text text-anchor="middle" x="694" y="-734.12" font-family="sans" font-size="10.00">add_genotype_information</text>
</g>
<!-- 36&#45;&gt;37 -->
<g id="edge64" class="edge">
<title>36&#45;&gt;37</title>
<path fill="none" stroke="grey" stroke-width="2" d="M641.13,-863.21C653.31,-854.11 666.67,-841.99 675,-828 685.5,-810.37 690.23,-787.71 692.35,-769.68"/>
<polygon fill="grey" stroke="grey" stroke-width="2" points="695.82,-770.23 693.24,-759.96 688.84,-769.6 695.82,-770.23"/>
</g>
<!-- 37&#45;&gt;33 -->
<g id="edge60" class="edge">
<title>37&#45;&gt;33</title>
<path fill="none" stroke="grey" stroke-width="2" d="M689.96,-719.34C688.44,-712.67 686.66,-704.89 684.95,-697.39"/>
<polygon fill="grey" stroke="grey" stroke-width="2" points="688.41,-696.82 682.77,-687.85 681.58,-698.38 688.41,-696.82"/>
</g>
<!-- 38 -->
<g id="node39" class="node">
<title>38</title>
<path fill="none" stroke="#56a9d8" stroke-width="2" stroke-dasharray="5,2" d="M769.88,-180C769.88,-180 666.12,-180 666.12,-180 660.12,-180 654.12,-174 654.12,-168 654.12,-168 654.12,-156 654.12,-156 654.12,-150 660.12,-144 666.12,-144 666.12,-144 769.88,-144 769.88,-144 775.88,-144 781.88,-150 781.88,-156 781.88,-156 781.88,-168 781.88,-168 781.88,-174 775.88,-180 769.88,-180"/>
<text text-anchor="middle" x="718" y="-158.12" font-family="sans" font-size="10.00">extract_phylogenetic_tree</text>
</g>
<!-- 38&#45;&gt;32 -->
<g id="edge58" class="edge">
<title>38&#45;&gt;32</title>
<path fill="none" stroke="grey" stroke-width="2" d="M696.05,-143.34C686.13,-135.36 674.21,-125.77 663.3,-116.99"/>
<polygon fill="grey" stroke="grey" stroke-width="2" points="665.59,-114.34 655.61,-110.8 661.2,-119.8 665.59,-114.34"/>
</g>
<!-- 39 -->
<g id="node40" class="node">
<title>39</title>
<path fill="none" stroke="#56c1d8" stroke-width="2" stroke-dasharray="5,2" d="M767,-252C767,-252 737,-252 737,-252 731,-252 725,-246 725,-240 725,-240 725,-228 725,-228 725,-222 731,-216 737,-216 737,-216 767,-216 767,-216 773,-216 779,-222 779,-228 779,-228 779,-240 779,-240 779,-246 773,-252 767,-252"/>
<text text-anchor="middle" x="752" y="-230.12" font-family="sans" font-size="10.00">export</text>
</g>
<!-- 39&#45;&gt;38 -->
<g id="edge65" class="edge">
<title>39&#45;&gt;38</title>
<path fill="none" stroke="grey" stroke-width="2" d="M743.42,-215.34C740.06,-208.43 736.12,-200.31 732.36,-192.56"/>
<polygon fill="grey" stroke="grey" stroke-width="2" points="735.54,-191.09 728.02,-183.62 729.24,-194.15 735.54,-191.09"/>
</g>
<!-- 40&#45;&gt;39 -->
<g id="edge66" class="edge">
<title>40&#45;&gt;39</title>
<path fill="none" stroke="grey" stroke-width="2" d="M762.56,-431.07C764.85,-401.28 768.31,-339.72 763,-288 762.23,-280.52 760.87,-272.54 759.36,-265.1"/>
<polygon fill="grey" stroke="grey" stroke-width="2" points="762.81,-264.49 757.23,-255.48 755.97,-266 762.81,-264.49"/>
</g>
<!-- 43 -->
<g id="node44" class="node">
<title>43</title>
<path fill="none" stroke="#56d8c9" stroke-width="2" stroke-dasharray="5,2" d="M856.38,-396C856.38,-396 821.62,-396 821.62,-396 815.62,-396 809.62,-390 809.62,-384 809.62,-384 809.62,-372 809.62,-372 809.62,-366 815.62,-360 821.62,-360 821.62,-360 856.38,-360 856.38,-360 862.38,-360 868.38,-366 868.38,-372 868.38,-372 868.38,-384 868.38,-384 868.38,-390 862.38,-396 856.38,-396"/>
<text text-anchor="middle" x="839" y="-374.12" font-family="sans" font-size="10.00">mugration</text>
</g>
<!-- 40&#45;&gt;43 -->
<g id="edge76" class="edge">
<title>40&#45;&gt;43</title>
<path fill="none" stroke="grey" stroke-width="2" d="M780.68,-431.34C789.39,-423.52 799.82,-414.16 809.43,-405.53"/>
<polygon fill="grey" stroke="grey" stroke-width="2" points="811.69,-408.21 816.8,-398.92 807.02,-403 811.69,-408.21"/>
</g>
<!-- 44 -->
<g id="node45" class="node">
<title>44</title>
<path fill="none" stroke="#5682d8" stroke-width="2" stroke-dasharray="5,2" d="M741.5,-324C741.5,-324 704.5,-324 704.5,-324 698.5,-324 692.5,-318 692.5,-312 692.5,-312 692.5,-300 692.5,-300 692.5,-294 698.5,-288 704.5,-288 704.5,-288 741.5,-288 741.5,-288 747.5,-288 753.5,-294 753.5,-300 753.5,-300 753.5,-312 753.5,-312 753.5,-318 747.5,-324 741.5,-324"/>
<text text-anchor="middle" x="723" y="-302.12" font-family="sans" font-size="10.00">translation</text>
</g>
<!-- 40&#45;&gt;44 -->
<g id="edge79" class="edge">
<title>40&#45;&gt;44</title>
<path fill="none" stroke="grey" stroke-width="2" d="M756.19,-431.02C749.88,-407.44 738.72,-365.73 731.1,-337.25"/>
<polygon fill="grey" stroke="grey" stroke-width="2" points="734.52,-336.52 728.56,-327.76 727.76,-338.33 734.52,-336.52"/>
</g>
<!-- 40&#45;&gt;45 -->
<g id="edge81" class="edge">
<title>40&#45;&gt;45</title>
<path fill="none" stroke="grey" stroke-width="2" d="M741.32,-431.34C732.61,-423.52 722.18,-414.16 712.57,-405.53"/>
<polygon fill="grey" stroke="grey" stroke-width="2" points="714.98,-403 705.2,-398.92 710.31,-408.21 714.98,-403"/>
</g>
<!-- 41 -->
<g id="node42" class="node">
<title>41</title>
<path fill="none" stroke="#78d856" stroke-width="2" stroke-dasharray="5,2" d="M781.75,-540C781.75,-540 740.25,-540 740.25,-540 734.25,-540 728.25,-534 728.25,-528 728.25,-528 728.25,-516 728.25,-516 728.25,-510 734.25,-504 740.25,-504 740.25,-504 781.75,-504 781.75,-504 787.75,-504 793.75,-510 793.75,-516 793.75,-516 793.75,-528 793.75,-528 793.75,-534 787.75,-540 781.75,-540"/>
<text text-anchor="middle" x="761" y="-518.12" font-family="sans" font-size="10.00">treebuilding</text>
</g>
<!-- 41&#45;&gt;40 -->
<g id="edge72" class="edge">
<title>41&#45;&gt;40</title>
<path fill="none" stroke="grey" stroke-width="2" d="M761,-503.34C761,-496.75 761,-489.08 761,-481.67"/>
<polygon fill="grey" stroke="grey" stroke-width="2" points="764.5,-481.93 761,-471.93 757.5,-481.93 764.5,-481.93"/>
</g>
<!-- 42&#45;&gt;39 -->
<g id="edge67" class="edge">
<title>42&#45;&gt;39</title>
<path fill="none" stroke="grey" stroke-width="2" d="M838.87,-575.35C861.26,-549.98 898,-500.77 898,-451 898,-451 898,-451 898,-377 898,-317.37 834.64,-274.68 791.4,-252.49"/>
<polygon fill="grey" stroke="grey" stroke-width="2" points="793.04,-249.39 782.52,-248.11 789.94,-255.67 793.04,-249.39"/>
</g>
<!-- 42&#45;&gt;40 -->
<g id="edge73" class="edge">
<title>42&#45;&gt;40</title>
<path fill="none" stroke="grey" stroke-width="2" d="M820.61,-575.18C818.62,-556.64 813.91,-527.15 803,-504 798.8,-495.09 792.85,-486.33 786.74,-478.58"/>
<polygon fill="grey" stroke="grey" stroke-width="2" points="789.51,-476.44 780.4,-471.03 784.15,-480.94 789.51,-476.44"/>
</g>
<!-- 42&#45;&gt;41 -->
<g id="edge74" class="edge">
<title>42&#45;&gt;41</title>
<path fill="none" stroke="grey" stroke-width="2" d="M806.61,-575.34C800.08,-567.85 792.33,-558.95 785.08,-550.63"/>
<polygon fill="grey" stroke="grey" stroke-width="2" points="787.8,-548.42 778.59,-543.18 782.52,-553.02 787.8,-548.42"/>
</g>
<!-- 42&#45;&gt;43 -->
<g id="edge77" class="edge">
<title>42&#45;&gt;43</title>
<path fill="none" stroke="grey" stroke-width="2" d="M823.42,-575.12C826.32,-538.62 832.95,-455.13 836.56,-409.74"/>
<polygon fill="grey" stroke="grey" stroke-width="2" points="840.03,-410.24 837.33,-399.99 833.05,-409.69 840.03,-410.24"/>
</g>
<!-- 43&#45;&gt;39 -->
<g id="edge68" class="edge">
<title>43&#45;&gt;39</title>
<path fill="none" stroke="grey" stroke-width="2" d="M831.95,-359.27C824.26,-340.81 811.04,-311.38 796,-288 790.42,-279.33 783.61,-270.48 777.03,-262.57"/>
<polygon fill="grey" stroke="grey" stroke-width="2" points="779.78,-260.4 770.61,-255.09 774.47,-264.96 779.78,-260.4"/>
</g>
<!-- 44&#45;&gt;39 -->
<g id="edge69" class="edge">
<title>44&#45;&gt;39</title>
<path fill="none" stroke="grey" stroke-width="2" d="M730.32,-287.34C733.15,-280.51 736.46,-272.5 739.64,-264.83"/>
<polygon fill="grey" stroke="grey" stroke-width="2" points="742.83,-266.28 743.42,-255.7 736.36,-263.6 742.83,-266.28"/>
</g>
<!-- 45&#45;&gt;39 -->
<g id="edge70" class="edge">
<title>45&#45;&gt;39</title>
<path fill="none" stroke="grey" stroke-width="2" d="M678.87,-359.23C675.47,-340.48 672.82,-310.57 684,-288 690.46,-274.96 701.82,-264.18 713.43,-255.82"/>
<polygon fill="grey" stroke="grey" stroke-width="2" points="715.08,-258.93 721.5,-250.5 711.23,-253.08 715.08,-258.93"/>
</g>
<!-- 45&#45;&gt;44 -->
<g id="edge78" class="edge">
<title>45&#45;&gt;44</title>
<path fill="none" stroke="grey" stroke-width="2" d="M693.09,-359.34C697.14,-352.26 701.9,-343.92 706.43,-336"/>
<polygon fill="grey" stroke="grey" stroke-width="2" points="709.35,-337.95 711.27,-327.53 703.27,-334.48 709.35,-337.95"/>
</g>
<!-- 46 -->
<g id="node47" class="node">
<title>46</title>
<path fill="none" stroke="#b6d856" stroke-width="2" stroke-dasharray="5,2" d="M1007,-108C1007,-108 865,-108 865,-108 859,-108 853,-102 853,-96 853,-96 853,-84 853,-84 853,-78 859,-72 865,-72 865,-72 1007,-72 1007,-72 1013,-72 1019,-78 1019,-84 1019,-84 1019,-96 1019,-96 1019,-102 1013,-108 1007,-108"/>
<text text-anchor="middle" x="936" y="-86.12" font-family="sans" font-size="10.00">filter_fasta_and_prepare_metadata</text>
</g>
<!-- 46&#45;&gt;0 -->
<g id="edge4" class="edge">
<title>46&#45;&gt;0</title>
<path fill="none" stroke="grey" stroke-width="2" d="M852.29,-74.24C768.61,-59.49 643.47,-37.42 579.62,-26.16"/>
<polygon fill="grey" stroke="grey" stroke-width="2" points="580.41,-22.75 569.95,-24.46 579.19,-29.64 580.41,-22.75"/>
</g>
<!-- 47 -->
<g id="node48" class="node">
<title>47</title>
<path fill="none" stroke="#56d88a" stroke-width="2" stroke-dasharray="5,2" d="M1010.38,-684C1010.38,-684 939.62,-684 939.62,-684 933.62,-684 927.62,-678 927.62,-672 927.62,-672 927.62,-660 927.62,-660 927.62,-654 933.62,-648 939.62,-648 939.62,-648 1010.38,-648 1010.38,-648 1016.38,-648 1022.38,-654 1022.38,-660 1022.38,-660 1022.38,-672 1022.38,-672 1022.38,-678 1016.38,-684 1010.38,-684"/>
<text text-anchor="middle" x="975" y="-662.12" font-family="sans" font-size="10.00">subsample_denv4</text>
</g>
<!-- 47&#45;&gt;46 -->
<g id="edge82" class="edge">
<title>47&#45;&gt;46</title>
<path fill="none" stroke="grey" stroke-width="2" d="M966.73,-647.05C955.28,-620.53 936,-569.02 936,-523 936,-523 936,-523 936,-233 936,-194.65 936,-150.48 936,-121.72"/>
<polygon fill="grey" stroke="grey" stroke-width="2" points="939.5,-121.96 936,-111.96 932.5,-121.96 939.5,-121.96"/>
</g>
<!-- 54 -->
<g id="node55" class="node">
<title>54</title>
<path fill="none" stroke="#d89556" stroke-width="2" stroke-dasharray="5,2" d="M1088,-468C1088,-468 1058,-468 1058,-468 1052,-468 1046,-462 1046,-456 1046,-456 1046,-444 1046,-444 1046,-438 1052,-432 1058,-432 1058,-432 1088,-432 1088,-432 1094,-432 1100,-438 1100,-444 1100,-444 1100,-456 1100,-456 1100,-462 1094,-468 1088,-468"/>
<text text-anchor="middle" x="1073" y="-446.12" font-family="sans" font-size="10.00">treetime</text>
</g>
<!-- 47&#45;&gt;54 -->
<g id="edge96" class="edge">
<title>47&#45;&gt;54</title>
<path fill="none" stroke="grey" stroke-width="2" d="M979.08,-647.28C986.57,-616.73 1004.21,-552.76 1031,-504 1035.82,-495.23 1042.09,-486.42 1048.3,-478.58"/>
<polygon fill="grey" stroke="grey" stroke-width="2" points="1050.98,-480.83 1054.67,-470.9 1045.6,-476.36 1050.98,-480.83"/>
</g>
<!-- 56 -->
<g id="node57" class="node">
<title>56</title>
<path fill="none" stroke="#d87d56" stroke-width="2" stroke-dasharray="5,2" d="M1173.88,-612C1173.88,-612 1094.12,-612 1094.12,-612 1088.12,-612 1082.12,-606 1082.12,-600 1082.12,-600 1082.12,-588 1082.12,-588 1082.12,-582 1088.12,-576 1094.12,-576 1094.12,-576 1173.88,-576 1173.88,-576 1179.88,-576 1185.88,-582 1185.88,-588 1185.88,-588 1185.88,-600 1185.88,-600 1185.88,-606 1179.88,-612 1173.88,-612"/>
<text text-anchor="middle" x="1134" y="-595.75" font-family="sans" font-size="10.00">reformatting</text>
<text text-anchor="middle" x="1134" y="-584.5" font-family="sans" font-size="10.00">serotype: Dengue_4</text>
</g>
<!-- 47&#45;&gt;56 -->
<g id="edge100" class="edge">
<title>47&#45;&gt;56</title>
<path fill="none" stroke="grey" stroke-width="2" d="M1015.53,-647.15C1035.55,-638.34 1059.94,-627.61 1081.37,-618.17"/>
<polygon fill="grey" stroke="grey" stroke-width="2" points="1082.75,-621.39 1090.49,-614.15 1079.93,-614.98 1082.75,-621.39"/>
</g>
<!-- 59 -->
<g id="node60" class="node">
<title>59</title>
<path fill="none" stroke="#d8bc56" stroke-width="2" stroke-dasharray="5,2" d="M1011.38,-396C1011.38,-396 976.62,-396 976.62,-396 970.62,-396 964.62,-390 964.62,-384 964.62,-384 964.62,-372 964.62,-372 964.62,-366 970.62,-360 976.62,-360 976.62,-360 1011.38,-360 1011.38,-360 1017.38,-360 1023.38,-366 1023.38,-372 1023.38,-372 1023.38,-384 1023.38,-384 1023.38,-390 1017.38,-396 1011.38,-396"/>
<text text-anchor="middle" x="994" y="-374.12" font-family="sans" font-size="10.00">mutations</text>
</g>
<!-- 47&#45;&gt;59 -->
<g id="edge105" class="edge">
<title>47&#45;&gt;59</title>
<path fill="none" stroke="grey" stroke-width="2" d="M976.19,-647.11C979.35,-599.56 987.98,-469.6 991.95,-409.83"/>
<polygon fill="grey" stroke="grey" stroke-width="2" points="995.44,-410.11 992.61,-399.9 988.46,-409.65 995.44,-410.11"/>
</g>
<!-- 48 -->
<g id="node49" class="node">
<title>48</title>
<path fill="none" stroke="#56d873" stroke-width="2" stroke-dasharray="5,2" d="M880.5,-756C880.5,-756 789.5,-756 789.5,-756 783.5,-756 777.5,-750 777.5,-744 777.5,-744 777.5,-732 777.5,-732 777.5,-726 783.5,-720 789.5,-720 789.5,-720 880.5,-720 880.5,-720 886.5,-720 892.5,-726 892.5,-732 892.5,-732 892.5,-744 892.5,-744 892.5,-750 886.5,-756 880.5,-756"/>
<text text-anchor="middle" x="835" y="-734.12" font-family="sans" font-size="10.00">split_genome_and_QC</text>
</g>
<!-- 48&#45;&gt;47 -->
<g id="edge84" class="edge">
<title>48&#45;&gt;47</title>
<path fill="none" stroke="grey" stroke-width="2" d="M870.69,-719.15C888.05,-710.47 909.15,-699.92 927.82,-690.59"/>
<polygon fill="grey" stroke="grey" stroke-width="2" points="929.29,-693.77 936.67,-686.17 926.16,-687.51 929.29,-693.77"/>
</g>
<!-- 49 -->
<g id="node50" class="node">
<title>49</title>
<path fill="none" stroke="#9fd856" stroke-width="2" stroke-dasharray="5,2" d="M875.62,-828C875.62,-828 794.38,-828 794.38,-828 788.38,-828 782.38,-822 782.38,-816 782.38,-816 782.38,-804 782.38,-804 782.38,-798 788.38,-792 794.38,-792 794.38,-792 875.62,-792 875.62,-792 881.62,-792 887.62,-798 887.62,-804 887.62,-804 887.62,-816 887.62,-816 887.62,-822 881.62,-828 875.62,-828"/>
<text text-anchor="middle" x="835" y="-806.12" font-family="sans" font-size="10.00">sequence_alignment</text>
</g>
<!-- 49&#45;&gt;48 -->
<g id="edge86" class="edge">
<title>49&#45;&gt;48</title>
<path fill="none" stroke="grey" stroke-width="2" d="M835,-791.34C835,-784.75 835,-777.08 835,-769.67"/>
<polygon fill="grey" stroke="grey" stroke-width="2" points="838.5,-769.93 835,-759.93 831.5,-769.93 838.5,-769.93"/>
</g>
<!-- 50&#45;&gt;49 -->
<g id="edge87" class="edge">
<title>50&#45;&gt;49</title>
<path fill="none" stroke="grey" stroke-width="2" d="M835,-863.34C835,-856.75 835,-849.08 835,-841.67"/>
<polygon fill="grey" stroke="grey" stroke-width="2" points="838.5,-841.93 835,-831.93 831.5,-841.93 838.5,-841.93"/>
</g>
<!-- 51 -->
<g id="node52" class="node">
<title>51</title>
<path fill="none" stroke="#56d863" stroke-width="2" stroke-dasharray="5,2" d="M1029,-756C1029,-756 923,-756 923,-756 917,-756 911,-750 911,-744 911,-744 911,-732 911,-732 911,-726 917,-720 923,-720 923,-720 1029,-720 1029,-720 1035,-720 1041,-726 1041,-732 1041,-732 1041,-744 1041,-744 1041,-750 1035,-756 1029,-756"/>
<text text-anchor="middle" x="976" y="-734.12" font-family="sans" font-size="10.00">add_genotype_information</text>
</g>
<!-- 50&#45;&gt;51 -->
<g id="edge89" class="edge">
<title>50&#45;&gt;51</title>
<path fill="none" stroke="grey" stroke-width="2" d="M857.46,-863.07C869.53,-853.12 884.47,-840.3 897,-828 916.97,-808.4 937.92,-784.63 953.22,-766.59"/>
<polygon fill="grey" stroke="grey" stroke-width="2" points="955.83,-768.93 959.58,-759.02 950.47,-764.42 955.83,-768.93"/>
</g>
<!-- 51&#45;&gt;47 -->
<g id="edge85" class="edge">
<title>51&#45;&gt;47</title>
<path fill="none" stroke="grey" stroke-width="2" d="M975.75,-719.34C975.65,-712.75 975.54,-705.08 975.44,-697.67"/>
<polygon fill="grey" stroke="grey" stroke-width="2" points="978.94,-697.88 975.3,-687.93 971.94,-697.98 978.94,-697.88"/>
</g>
<!-- 52 -->
<g id="node53" class="node">
<title>52</title>
<path fill="none" stroke="#56a9d8" stroke-width="2" stroke-dasharray="5,2" d="M1083.88,-180C1083.88,-180 980.12,-180 980.12,-180 974.12,-180 968.12,-174 968.12,-168 968.12,-168 968.12,-156 968.12,-156 968.12,-150 974.12,-144 980.12,-144 980.12,-144 1083.88,-144 1083.88,-144 1089.88,-144 1095.88,-150 1095.88,-156 1095.88,-156 1095.88,-168 1095.88,-168 1095.88,-174 1089.88,-180 1083.88,-180"/>
<text text-anchor="middle" x="1032" y="-158.12" font-family="sans" font-size="10.00">extract_phylogenetic_tree</text>
</g>
<!-- 52&#45;&gt;46 -->
<g id="edge83" class="edge">
<title>52&#45;&gt;46</title>
<path fill="none" stroke="grey" stroke-width="2" d="M1007.53,-143.15C996.36,-135.01 982.93,-125.22 970.73,-116.33"/>
<polygon fill="grey" stroke="grey" stroke-width="2" points="973.02,-113.66 962.87,-110.6 968.89,-119.32 973.02,-113.66"/>
</g>
<!-- 53 -->
<g id="node54" class="node">
<title>53</title>
<path fill="none" stroke="#56c1d8" stroke-width="2" stroke-dasharray="5,2" d="M1080,-252C1080,-252 1050,-252 1050,-252 1044,-252 1038,-246 1038,-240 1038,-240 1038,-228 1038,-228 1038,-222 1044,-216 1050,-216 1050,-216 1080,-216 1080,-216 1086,-216 1092,-222 1092,-228 1092,-228 1092,-240 1092,-240 1092,-246 1086,-252 1080,-252"/>
<text text-anchor="middle" x="1065" y="-230.12" font-family="sans" font-size="10.00">export</text>
</g>
<!-- 53&#45;&gt;52 -->
<g id="edge90" class="edge">
<title>53&#45;&gt;52</title>
<path fill="none" stroke="grey" stroke-width="2" d="M1056.67,-215.34C1053.41,-208.43 1049.59,-200.31 1045.93,-192.56"/>
<polygon fill="grey" stroke="grey" stroke-width="2" points="1049.16,-191.19 1041.73,-183.64 1042.83,-194.18 1049.16,-191.19"/>
</g>
<!-- 54&#45;&gt;53 -->
<g id="edge91" class="edge">
<title>54&#45;&gt;53</title>
<path fill="none" stroke="grey" stroke-width="2" d="M1074.74,-431.07C1077.32,-401.28 1081.31,-339.73 1076,-288 1075.23,-280.52 1073.87,-272.54 1072.36,-265.1"/>
<polygon fill="grey" stroke="grey" stroke-width="2" points="1075.81,-264.49 1070.23,-255.48 1068.97,-266 1075.81,-264.49"/>
</g>
<!-- 57 -->
<g id="node58" class="node">
<title>57</title>
<path fill="none" stroke="#56d8c9" stroke-width="2" stroke-dasharray="5,2" d="M1169.38,-396C1169.38,-396 1134.62,-396 1134.62,-396 1128.62,-396 1122.62,-390 1122.62,-384 1122.62,-384 1122.62,-372 1122.62,-372 1122.62,-366 1128.62,-360 1134.62,-360 1134.62,-360 1169.38,-360 1169.38,-360 1175.38,-360 1181.38,-366 1181.38,-372 1181.38,-372 1181.38,-384 1181.38,-384 1181.38,-390 1175.38,-396 1169.38,-396"/>
<text text-anchor="middle" x="1152" y="-374.12" font-family="sans" font-size="10.00">mugration</text>
</g>
<!-- 54&#45;&gt;57 -->
<g id="edge101" class="edge">
<title>54&#45;&gt;57</title>
<path fill="none" stroke="grey" stroke-width="2" d="M1092.94,-431.34C1101.76,-423.52 1112.32,-414.16 1122.05,-405.53"/>
<polygon fill="grey" stroke="grey" stroke-width="2" points="1124.37,-408.16 1129.53,-398.91 1119.73,-402.92 1124.37,-408.16"/>
</g>
<!-- 58 -->
<g id="node59" class="node">
<title>58</title>
<path fill="none" stroke="#5682d8" stroke-width="2" stroke-dasharray="5,2" d="M1054.5,-324C1054.5,-324 1017.5,-324 1017.5,-324 1011.5,-324 1005.5,-318 1005.5,-312 1005.5,-312 1005.5,-300 1005.5,-300 1005.5,-294 1011.5,-288 1017.5,-288 1017.5,-288 1054.5,-288 1054.5,-288 1060.5,-288 1066.5,-294 1066.5,-300 1066.5,-300 1066.5,-312 1066.5,-312 1066.5,-318 1060.5,-324 1054.5,-324"/>
<text text-anchor="middle" x="1036" y="-302.12" font-family="sans" font-size="10.00">translation</text>
</g>
<!-- 54&#45;&gt;58 -->
<g id="edge104" class="edge">
<title>54&#45;&gt;58</title>
<path fill="none" stroke="grey" stroke-width="2" d="M1068.31,-431.02C1062.17,-407.44 1051.3,-365.73 1043.88,-337.25"/>
<polygon fill="grey" stroke="grey" stroke-width="2" points="1047.32,-336.56 1041.41,-327.77 1040.55,-338.33 1047.32,-336.56"/>
</g>
<!-- 54&#45;&gt;59 -->
<g id="edge106" class="edge">
<title>54&#45;&gt;59</title>
<path fill="none" stroke="grey" stroke-width="2" d="M1053.06,-431.34C1044.24,-423.52 1033.68,-414.16 1023.95,-405.53"/>
<polygon fill="grey" stroke="grey" stroke-width="2" points="1026.27,-402.92 1016.47,-398.91 1021.63,-408.16 1026.27,-402.92"/>
</g>
<!-- 55 -->
<g id="node56" class="node">
<title>55</title>
<path fill="none" stroke="#78d856" stroke-width="2" stroke-dasharray="5,2" d="M1093.75,-540C1093.75,-540 1052.25,-540 1052.25,-540 1046.25,-540 1040.25,-534 1040.25,-528 1040.25,-528 1040.25,-516 1040.25,-516 1040.25,-510 1046.25,-504 1052.25,-504 1052.25,-504 1093.75,-504 1093.75,-504 1099.75,-504 1105.75,-510 1105.75,-516 1105.75,-516 1105.75,-528 1105.75,-528 1105.75,-534 1099.75,-540 1093.75,-540"/>
<text text-anchor="middle" x="1073" y="-518.12" font-family="sans" font-size="10.00">treebuilding</text>
</g>
<!-- 55&#45;&gt;54 -->
<g id="edge97" class="edge">
<title>55&#45;&gt;54</title>
<path fill="none" stroke="grey" stroke-width="2" d="M1073,-503.34C1073,-496.75 1073,-489.08 1073,-481.67"/>
<polygon fill="grey" stroke="grey" stroke-width="2" points="1076.5,-481.93 1073,-471.93 1069.5,-481.93 1076.5,-481.93"/>
</g>
<!-- 56&#45;&gt;53 -->
<g id="edge92" class="edge">
<title>56&#45;&gt;53</title>
<path fill="none" stroke="grey" stroke-width="2" d="M1150.87,-575.35C1173.26,-549.98 1210,-500.77 1210,-451 1210,-451 1210,-451 1210,-377 1210,-317.74 1147.41,-275.05 1104.48,-252.74"/>
<polygon fill="grey" stroke="grey" stroke-width="2" points="1106.18,-249.68 1095.67,-248.35 1103.05,-255.94 1106.18,-249.68"/>
</g>
<!-- 56&#45;&gt;54 -->
<g id="edge98" class="edge">
<title>56&#45;&gt;54</title>
<path fill="none" stroke="grey" stroke-width="2" d="M1132.61,-575.18C1130.62,-556.64 1125.91,-527.15 1115,-504 1110.8,-495.09 1104.85,-486.33 1098.74,-478.58"/>
<polygon fill="grey" stroke="grey" stroke-width="2" points="1101.51,-476.44 1092.4,-471.03 1096.15,-480.94 1101.51,-476.44"/>
</g>
<!-- 56&#45;&gt;55 -->
<g id="edge99" class="edge">
<title>56&#45;&gt;55</title>
<path fill="none" stroke="grey" stroke-width="2" d="M1118.61,-575.34C1112.08,-567.85 1104.33,-558.95 1097.08,-550.63"/>
<polygon fill="grey" stroke="grey" stroke-width="2" points="1099.8,-548.42 1090.59,-543.18 1094.52,-553.02 1099.8,-548.42"/>
</g>
<!-- 56&#45;&gt;57 -->
<g id="edge102" class="edge">
<title>56&#45;&gt;57</title>
<path fill="none" stroke="grey" stroke-width="2" d="M1135.5,-575.12C1138.57,-538.62 1145.6,-455.13 1149.41,-409.74"/>
<polygon fill="grey" stroke="grey" stroke-width="2" points="1152.88,-410.25 1150.23,-399.99 1145.91,-409.66 1152.88,-410.25"/>
</g>
<!-- 57&#45;&gt;53 -->
<g id="edge93" class="edge">
<title>57&#45;&gt;53</title>
<path fill="none" stroke="grey" stroke-width="2" d="M1144.95,-359.27C1137.26,-340.81 1124.04,-311.38 1109,-288 1103.42,-279.33 1096.61,-270.48 1090.03,-262.57"/>
<polygon fill="grey" stroke="grey" stroke-width="2" points="1092.78,-260.4 1083.61,-255.09 1087.47,-264.96 1092.78,-260.4"/>
</g>
<!-- 58&#45;&gt;53 -->
<g id="edge94" class="edge">
<title>58&#45;&gt;53</title>
<path fill="none" stroke="grey" stroke-width="2" d="M1043.32,-287.34C1046.15,-280.51 1049.46,-272.5 1052.64,-264.83"/>
<polygon fill="grey" stroke="grey" stroke-width="2" points="1055.83,-266.28 1056.42,-255.7 1049.36,-263.6 1055.83,-266.28"/>
</g>
<!-- 59&#45;&gt;53 -->
<g id="edge95" class="edge">
<title>59&#45;&gt;53</title>
<path fill="none" stroke="grey" stroke-width="2" d="M990.37,-359.19C987.47,-340.4 985.56,-310.45 997,-288 1003.61,-275.03 1015.01,-264.27 1026.6,-255.91"/>
<polygon fill="grey" stroke="grey" stroke-width="2" points="1028.24,-259.02 1034.65,-250.58 1024.38,-253.18 1028.24,-259.02"/>
</g>
<!-- 59&#45;&gt;58 -->
<g id="edge103" class="edge">
<title>59&#45;&gt;58</title>
<path fill="none" stroke="grey" stroke-width="2" d="M1004.6,-359.34C1008.84,-352.26 1013.85,-343.92 1018.6,-336"/>
<polygon fill="grey" stroke="grey" stroke-width="2" points="1021.56,-337.87 1023.7,-327.5 1015.56,-334.27 1021.56,-337.87"/>
</g>
</g>
</svg>
